<svg width="133" height="31" viewBox="0 0 133 31" fill="none" xmlns="http://www.w3.org/2000/svg">
<path d="M2.41669 25V22.744H7.12069V10.216H6.92869L3.04069 14.368L1.38469 12.88L5.65669 8.248H9.78469V22.744H13.8647V25H2.41669Z" fill="#061224" fill-opacity="0.9"/>
<path opacity="0.6" d="M72.8415 22H64.3095V20.056L68.3235 16.474C68.9595 15.898 69.4455 15.352 69.7815 14.836C70.1295 14.308 70.3035 13.756 70.3035 13.18V12.946C70.3035 12.334 70.1175 11.854 69.7455 11.506C69.3855 11.158 68.8935 10.984 68.2695 10.984C67.9215 10.984 67.6155 11.038 67.3515 11.146C67.0995 11.242 66.8775 11.38 66.6855 11.56C66.4935 11.74 66.3315 11.95 66.1995 12.19C66.0795 12.43 65.9835 12.688 65.9115 12.964L64.1295 12.28C64.2615 11.884 64.4415 11.506 64.6695 11.146C64.8975 10.774 65.1855 10.444 65.5335 10.156C65.8815 9.868 66.2895 9.64 66.7575 9.472C67.2375 9.304 67.7955 9.22 68.4315 9.22C69.0675 9.22 69.6375 9.316 70.1415 9.508C70.6455 9.688 71.0655 9.946 71.4015 10.282C71.7495 10.606 72.0135 10.996 72.1935 11.452C72.3735 11.908 72.4635 12.406 72.4635 12.946C72.4635 13.45 72.3855 13.918 72.2295 14.35C72.0735 14.782 71.8575 15.19 71.5815 15.574C71.3055 15.958 70.9815 16.324 70.6095 16.672C70.2495 17.02 69.8655 17.374 69.4575 17.734L66.5055 20.272H72.8415V22Z" fill="#061224"/>
<path opacity="0.6" d="M126.82 14.602C127.6 14.602 128.176 14.44 128.548 14.116C128.92 13.78 129.106 13.354 129.106 12.838V12.712C129.106 12.136 128.926 11.698 128.566 11.398C128.206 11.086 127.72 10.93 127.108 10.93C126.508 10.93 125.998 11.068 125.578 11.344C125.158 11.608 124.804 11.98 124.516 12.46L123.166 11.29C123.358 11.014 123.574 10.75 123.814 10.498C124.054 10.246 124.336 10.03 124.66 9.85C124.984 9.658 125.35 9.508 125.758 9.4C126.166 9.28 126.634 9.22 127.162 9.22C127.75 9.22 128.296 9.292 128.8 9.436C129.304 9.58 129.736 9.796 130.096 10.084C130.456 10.36 130.738 10.702 130.942 11.11C131.146 11.506 131.248 11.956 131.248 12.46C131.248 12.856 131.182 13.216 131.05 13.54C130.93 13.864 130.756 14.152 130.528 14.404C130.312 14.644 130.054 14.842 129.754 14.998C129.466 15.154 129.16 15.268 128.836 15.34V15.43C129.196 15.502 129.532 15.622 129.844 15.79C130.168 15.946 130.45 16.156 130.69 16.42C130.93 16.672 131.116 16.978 131.248 17.338C131.392 17.686 131.464 18.088 131.464 18.544C131.464 19.096 131.356 19.6 131.14 20.056C130.924 20.5 130.618 20.884 130.222 21.208C129.838 21.532 129.37 21.784 128.818 21.964C128.266 22.132 127.654 22.216 126.982 22.216C126.394 22.216 125.878 22.15 125.434 22.018C124.99 21.898 124.594 21.736 124.246 21.532C123.91 21.316 123.61 21.076 123.346 20.812C123.094 20.536 122.872 20.254 122.68 19.966L124.174 18.796C124.33 19.048 124.492 19.282 124.66 19.498C124.84 19.702 125.038 19.882 125.254 20.038C125.482 20.182 125.734 20.296 126.01 20.38C126.298 20.464 126.622 20.506 126.982 20.506C127.75 20.506 128.338 20.326 128.746 19.966C129.154 19.594 129.358 19.084 129.358 18.436V18.31C129.358 17.662 129.142 17.17 128.71 16.834C128.278 16.498 127.666 16.33 126.874 16.33H125.542V14.602H126.82Z" fill="#061224"/>
<path d="M47 15L31 15" stroke="#1064E5" stroke-width="1.5" stroke-linecap="round" stroke-linejoin="round"/>
<path d="M106 15L90 15" stroke="#1064E5" stroke-width="1.5" stroke-linecap="round" stroke-linejoin="round"/>
</svg>
